<?xml version="1.0" encoding="UTF-8"?>
<svg version="1.1" xmlns="http://www.w3.org/2000/svg" width="291" height="115">
<path d="M0 0 C2 2 2 2 2 4.23828125 C0.57406503 8.1763126 -1.97813972 10.37104266 -5 13.1875 C-8.98308018 16.7163415 -8.98308018 16.7163415 -12 21 C-11.67 26.94 -11.34 32.88 -11 39 C15.73 39 42.46 39 70 39 C70.66 34.38 71.32 29.76 72 25 C72.99 24.67 73.98 24.34 75 24 C75.66 24.33 76.32 24.66 77 25 C76.34 32.26 75.68 39.52 75 47 C77.31 47.33 79.62 47.66 82 48 C82 49.32 82 50.64 82 52 C47.35 52 12.7 52 -23 52 C-23.495 50.515 -23.495 50.515 -24 49 C-23 48 -23 48 -21.15234375 47.90234375 C-19.1015625 47.93489583 -17.05078125 47.96744792 -15 48 C-15.09611572 47.23333008 -15.19223145 46.46666016 -15.29125977 45.67675781 C-15.72257044 42.20206219 -16.14265473 38.7260988 -16.5625 35.25 C-16.71396484 34.0434375 -16.86542969 32.836875 -17.02148438 31.59375 C-17.2293457 29.85351562 -17.2293457 29.85351562 -17.44140625 28.078125 C-17.57232666 27.00981445 -17.70324707 25.94150391 -17.83813477 24.84082031 C-17.98754248 22.2186361 -17.69080552 20.49010483 -17 18 C-17.77472052 15.95021083 -17.77472052 15.95021083 -19 14 C-21.08219178 10.49315068 -21.08219178 10.49315068 -20.625 7.75 C-20.41875 7.1725 -20.2125 6.595 -20 6 C-18.97519531 5.98582031 -17.95039063 5.97164063 -16.89453125 5.95703125 C-15.53381029 5.91010984 -14.17313459 5.86186256 -12.8125 5.8125 C-12.13896484 5.80669922 -11.46542969 5.80089844 -10.77148438 5.79492188 C-6.74287144 5.61805594 -5.11941921 5.10193561 -2.01171875 2.44921875 C-1.34785156 1.64097656 -0.68398438 0.83273438 0 0 Z M-15 11 C-11 12 -11 12 -11 12 Z M-10 44 C-9.67 45.32 -9.34 46.64 -9 48 C-7.54176788 48.0270043 -6.08339325 48.04639787 -4.625 48.0625 C-3.40683594 48.07990234 -3.40683594 48.07990234 -2.1640625 48.09765625 C0.04937142 48.14466334 0.04937142 48.14466334 2 47 C2 46.01 2 45.02 2 44 C-1.96 44 -5.92 44 -10 44 Z M7 44 C6.67 45.32 6.34 46.64 6 48 C21.18 48 36.36 48 52 48 C52.33 46.68 52.66 45.36 53 44 C37.82 44 22.64 44 7 44 Z M58 44 C58.33 45.32 58.66 46.64 59 48 C62.3 48 65.6 48 69 48 C69.33 46.68 69.66 45.36 70 44 C66.04 44 62.08 44 58 44 Z " fill="#010A03" transform="translate(29,60)"/>
<path d="M0 0 C1.24394531 -0.01417969 2.48789063 -0.02835938 3.76953125 -0.04296875 C6.91844497 0.169358 8.67754454 0.31733711 11.1875 2.1875 C11.875 5.375 11.875 5.375 12.1875 9.1875 C12.455625 10.404375 12.72375 11.62125 13 12.875 C13.1875 16.1875 13.1875 16.1875 11.74609375 18.37890625 C8.0260252 21.00851196 4.87229416 20.62871832 0.4375 20.4375 C-0.75166016 20.41042969 -0.75166016 20.41042969 -1.96484375 20.3828125 C-3.91458348 20.33583082 -5.86369878 20.26409044 -7.8125 20.1875 C-7.84138514 17.04168577 -7.85925923 13.89590531 -7.875 10.75 C-7.88337891 9.85216797 -7.89175781 8.95433594 -7.90039062 8.02929688 C-7.90361328 7.17529297 -7.90683594 6.32128906 -7.91015625 5.44140625 C-7.91801147 4.25526733 -7.91801147 4.25526733 -7.92602539 3.04516602 C-7.6588386 -1.3269293 -3.48812095 0.01796149 0 0 Z M-1.8125 6.1875 C-1.8125 6.8475 -1.8125 7.5075 -1.8125 8.1875 C0.8275 8.1875 3.4675 8.1875 6.1875 8.1875 C6.1875 7.5275 6.1875 6.8675 6.1875 6.1875 C3.5475 6.1875 0.9075 6.1875 -1.8125 6.1875 Z M-0.0625 14.0625 C-0.64 14.43375 -1.2175 14.805 -1.8125 15.1875 C0.8275 15.1875 3.4675 15.1875 6.1875 15.1875 C3.24340637 13.25153854 3.24340637 13.25153854 -0.0625 14.0625 Z " fill="#000501" transform="translate(137.8125,47.8125)"/>
<path d="M0 0 C2.8203125 -0.2109375 2.8203125 -0.2109375 6 0 C7.6796875 1.4609375 7.6796875 1.4609375 8.875 3.375 C9.48988281 4.31472656 9.48988281 4.31472656 10.1171875 5.2734375 C11 7 11 7 11 9 C11.66 9 12.32 9 13 9 C13.268125 8.2575 13.53625 7.515 13.8125 6.75 C14.99591088 4.00946954 15.84938363 2.07380865 18 0 C19.98 0 21.96 0 24 0 C24 6.6 24 13.2 24 20 C20 21 20 21 18 20 C17.59270772 17.67843403 17.25561323 15.3431213 17 13 C16.01 14.485 16.01 14.485 15 16 C12.5625 16.4375 12.5625 16.4375 10 16 C8.1875 14 8.1875 14 7 12 C6.67 14.64 6.34 17.28 6 20 C4.34385343 20.38218767 2.67542976 20.71395102 1 21 C0 20 0 20 -0.11352539 18.05053711 C-0.10567017 16.8015564 -0.10567017 16.8015564 -0.09765625 15.52734375 C-0.09443359 14.62822266 -0.09121094 13.72910156 -0.08789062 12.80273438 C-0.07951172 11.85720703 -0.07113281 10.91167969 -0.0625 9.9375 C-0.05798828 8.98810547 -0.05347656 8.03871094 -0.04882812 7.06054688 C-0.0370011 4.70696935 -0.02052025 2.35351523 0 0 Z " fill="#010401" transform="translate(45,48)"/>
<path d="M0 0 C6.0745337 3.56521712 9.1935217 8.50623076 11.19921875 15.1171875 C11.83383079 18.48237797 11.40162578 21.05668986 10.625 24.375 C8.975 24.705 7.325 25.035 5.625 25.375 C5.65980469 24.72273438 5.69460937 24.07046875 5.73046875 23.3984375 C5.90279608 17.83472652 5.56245926 14.27076543 2.625 9.375 C2.625 8.715 2.625 8.055 2.625 7.375 C-3.24289229 4.72498413 -9.36892119 2.31914724 -15.6875 4.5 C-18.96641348 6.01886052 -21.33006207 7.30759311 -23.375 10.375 C-25.60476529 16.91332219 -25.54309433 21.87071702 -23.375 28.375 C-25.355 29.365 -25.355 29.365 -27.375 30.375 C-30.948024 24.86658801 -31.16131612 19.72879578 -30.375 13.375 C-28.54752648 6.67426376 -24.22427959 2.84613306 -18.375 -0.625 C-12.44146813 -2.60284396 -5.73646881 -2.63331235 0 0 Z " fill="#010802" transform="translate(68.375,3.625)"/>
<path d="M0 0 C6 0 6 0 8.1171875 1.75 C8.98730469 2.86375 8.98730469 2.86375 9.875 4 C10.47054687 4.7425 11.06609375 5.485 11.6796875 6.25 C12.11539063 6.8275 12.55109375 7.405 13 8 C13.144375 6.865625 13.28875 5.73125 13.4375 4.5625 C14 1 14 1 15 0 C17.5 -0.125 17.5 -0.125 20 0 C21 1 21 1 21.11352539 2.85766602 C21.10828857 3.64842529 21.10305176 4.43918457 21.09765625 5.25390625 C21.09443359 6.10791016 21.09121094 6.96191406 21.08789062 7.84179688 C21.07951172 8.73962891 21.07113281 9.63746094 21.0625 10.5625 C21.05798828 11.46419922 21.05347656 12.36589844 21.04882812 13.29492188 C21.03700225 15.53001314 21.0205222 17.76497437 21 20 C14.62035011 20.49015317 14.62035011 20.49015317 11.78515625 18.25 C11.21667969 17.5075 10.64820313 16.765 10.0625 16 C9.47597656 15.2575 8.88945312 14.515 8.28515625 13.75 C7.86105469 13.1725 7.43695313 12.595 7 12 C6.67 14.64 6.34 17.28 6 20 C4.02 20 2.04 20 0 20 C0 13.4 0 6.8 0 0 Z " fill="#010501" transform="translate(184,48)"/>
<path d="M0 0 C2.40149968 2.01416102 2.86576543 2.97938884 3.2109375 6.0859375 C3.26121094 7.52839844 3.26121094 7.52839844 3.3125 9 C3.36148438 9.95648438 3.41046875 10.91296875 3.4609375 11.8984375 C2.9375 14.625 2.9375 14.625 0.8203125 16.94140625 C-4.23033146 19.89103707 -9.39897468 19.43718289 -15.0625 18.625 C-18.375 16.6875 -18.375 16.6875 -20.0625 13.625 C-20.97347379 8.96047681 -20.72197296 5.71654145 -18.25 1.625 C-13.43889582 -2.77372382 -5.72460925 -2.57023272 0 0 Z M-13.0625 6.625 C-13.22916667 9.625 -13.22916667 9.625 -13.0625 12.625 C-11.89213695 14.01787806 -11.89213695 14.01787806 -8.625 13.8125 C-5.01217279 14.02064928 -5.01217279 14.02064928 -3.0625 11.625 C-3.38448966 8.52573181 -3.38448966 8.52573181 -4.0625 5.625 C-8.86220742 5.09666284 -8.86220742 5.09666284 -13.0625 6.625 Z " fill="#010500" transform="translate(231.0625,49.375)"/>
<path d="M0 0 C2.96912882 1.38980498 4.69657028 2.69657028 7 5 C7.37109375 7.4609375 7.37109375 7.4609375 7.4375 10.375 C7.47746094 11.33148438 7.51742188 12.28796875 7.55859375 13.2734375 C7 16 7 16 4.87890625 18.31640625 C-0.16838138 21.26807649 -5.33881412 20.8118474 -11 20 C-14.3125 18.0625 -14.3125 18.0625 -16 15 C-16.66873625 11.83922096 -16.73123998 9.15347243 -16 6 C-11.27460983 0.0310861 -7.27458771 -0.72997593 0 0 Z M-9 8 C-9.16666667 11 -9.16666667 11 -9 14 C-7.82963695 15.39287806 -7.82963695 15.39287806 -4.5625 15.1875 C-0.94967279 15.39564928 -0.94967279 15.39564928 1 13 C1.2500773 10.45809998 1.2500773 10.45809998 1 8 C0.02089415 6.80304724 0.02089415 6.80304724 -1.8125 6.8671875 C-2.534375 6.86976562 -3.25625 6.87234375 -4 6.875 C-4.721875 6.87242188 -5.44375 6.86984375 -6.1875 6.8671875 C-8.02089415 6.80304724 -8.02089415 6.80304724 -9 8 Z " fill="#000400" transform="translate(281,48)"/>
<path d="M0 0 C2.5 0.125 2.5 0.125 3.5 1.125 C3.73481693 3.30792774 3.91363323 5.49703174 4.0625 7.6875 C4.14628906 8.88503906 4.23007813 10.08257812 4.31640625 11.31640625 C4.37699219 12.24324219 4.43757813 13.17007813 4.5 14.125 C6.48 14.125 8.46 14.125 10.5 14.125 C11.85091528 11.42316945 11.83858058 9.00691794 12.0625 6 C12.14628906 4.90429688 12.23007813 3.80859375 12.31640625 2.6796875 C12.37699219 1.83664063 12.43757813 0.99359375 12.5 0.125 C14.48 0.125 16.46 0.125 18.5 0.125 C18.6081866 2.70945773 18.68737237 5.28937352 18.75 7.875 C18.80027344 8.96941406 18.80027344 8.96941406 18.8515625 10.0859375 C18.91614699 13.63808421 18.82406972 15.68499155 16.6875 18.5859375 C13.10163242 21.10885147 9.64562026 21.44703704 5.33984375 20.80078125 C2.08240353 20.06179753 -0.10456684 19.52043316 -2.5 17.125 C-3.69362507 13.76320787 -3.63362484 10.47799871 -3.625 6.9375 C-3.62757812 5.87144531 -3.63015625 4.80539063 -3.6328125 3.70703125 C-3.45668467 0.28289898 -3.41752159 0.17087608 0 0 Z " fill="#010501" transform="translate(78.5,47.875)"/>
<path d="M0 0 C1.4540625 0.0309375 1.4540625 0.0309375 2.9375 0.0625 C4.28027732 2.8288534 5.61005228 5.60126211 6.9375 8.375 C7.3190625 9.16068359 7.700625 9.94636719 8.09375 10.75585938 C8.4546875 11.51318359 8.815625 12.27050781 9.1875 13.05078125 C9.52265625 13.74727783 9.8578125 14.44377441 10.203125 15.16137695 C10.9375 17.0625 10.9375 17.0625 10.9375 20.0625 C9.125 20.75 9.125 20.75 6.9375 21.0625 C6.4940625 20.588125 6.050625 20.11375 5.59375 19.625 C3.46910663 17.62061947 2.12600978 17.58340651 -0.75 17.375 C-1.55824219 17.30925781 -2.36648437 17.24351563 -3.19921875 17.17578125 C-3.81410156 17.13839844 -4.42898437 17.10101563 -5.0625 17.0625 C-5.0625 18.0525 -5.0625 19.0425 -5.0625 20.0625 C-7.0425 20.3925 -9.0225 20.7225 -11.0625 21.0625 C-12.21911707 17.59264878 -11.96274784 17.22109213 -10.4453125 14.0859375 C-10.08566406 13.333125 -9.72601563 12.5803125 -9.35546875 11.8046875 C-8.97003906 11.02351563 -8.58460937 10.24234375 -8.1875 9.4375 C-7.62095703 8.25414062 -7.62095703 8.25414062 -7.04296875 7.046875 C-3.67684106 0.07503757 -3.67684106 0.07503757 0 0 Z M-1.0625 9.0625 C-1.3925 9.7225 -1.7225 10.3825 -2.0625 11.0625 C-1.0725 11.0625 -0.0825 11.0625 0.9375 11.0625 C0.9375 10.4025 0.9375 9.7425 0.9375 9.0625 C0.2775 9.0625 -0.3825 9.0625 -1.0625 9.0625 Z " fill="#010401" transform="translate(113.0625,47.9375)"/>
<path d="M0 0 C1.98 0 3.96 0 6 0 C7.15272364 2.39272922 8.29728845 4.78881621 9.4375 7.1875 C9.92573242 8.19780273 9.92573242 8.19780273 10.42382812 9.22851562 C12.11679811 12.80644187 13.45362121 16.03682994 14 20 C11.1875 20.1875 11.1875 20.1875 8 20 C7.525625 19.505 7.05125 19.01 6.5625 18.5 C4.91660308 16.59216358 4.91660308 16.59216358 1.3125 16.8125 C0.219375 16.874375 -0.87375 16.93625 -2 17 C-2.33 17.99 -2.66 18.98 -3 20 C-4.98 20 -6.96 20 -9 20 C-6.86233829 12.755702 -3.77315981 6.53281715 0 0 Z M2 8 C1.67 8.99 1.34 9.98 1 11 C1.99 11 2.98 11 4 11 C3.67 10.01 3.34 9.02 3 8 C2.67 8 2.34 8 2 8 Z " fill="#010501" transform="translate(164,48)"/>
<path d="M0 0 C0.83265381 0.00523682 1.66530762 0.01047363 2.52319336 0.01586914 C3.42231445 0.0190918 4.32143555 0.02231445 5.24780273 0.02563477 C6.66609375 0.03820313 6.66609375 0.03820313 8.11303711 0.05102539 C9.06243164 0.05553711 10.01182617 0.06004883 10.98999023 0.06469727 C13.34356776 0.07652429 15.69702188 0.09300514 18.05053711 0.11352539 C18.05053711 1.76352539 18.05053711 3.41352539 18.05053711 5.11352539 C15.74053711 5.11352539 13.43053711 5.11352539 11.05053711 5.11352539 C11.06213867 6.18473633 11.07374023 7.25594727 11.08569336 8.35961914 C11.0950701 9.75675282 11.10417042 11.15388838 11.11303711 12.55102539 C11.12141602 13.25807617 11.12979492 13.96512695 11.13842773 14.69360352 C11.14707299 16.50046098 11.10273722 18.30740142 11.05053711 20.11352539 C10.05053711 21.11352539 10.05053711 21.11352539 7.55053711 21.23852539 C5.05053711 21.11352539 5.05053711 21.11352539 4.05053711 20.11352539 C3.81525938 17.76365277 3.63667294 15.407965 3.48803711 13.05102539 C3.40424805 11.76067383 3.32045898 10.47032227 3.23413086 9.14086914 C3.17354492 8.1418457 3.11295898 7.14282227 3.05053711 6.11352539 C1.40053711 6.11352539 -0.24946289 6.11352539 -1.94946289 6.11352539 C-2.33165056 4.45737882 -2.66341391 2.78895515 -2.94946289 1.11352539 C-1.94946289 0.11352539 -1.94946289 0.11352539 0 0 Z " fill="#010501" transform="translate(241.949462890625,47.886474609375)"/>
<path d="M0 0 C5.83218418 0.04703374 11.47165941 1.10429502 17.1875 2.1875 C17.91830266 4.16496603 18.58171747 6.16822489 19.1875 8.1875 C18.8575 8.8475 18.5275 9.5075 18.1875 10.1875 C14.54168313 10.21637512 10.89589537 10.23425585 7.25 10.25 C5.68862305 10.26256836 5.68862305 10.26256836 4.09570312 10.27539062 C3.10634766 10.27861328 2.11699219 10.28183594 1.09765625 10.28515625 C0.18121338 10.29039307 -0.73522949 10.29562988 -1.67944336 10.30102539 C-3.8125 10.1875 -3.8125 10.1875 -4.8125 9.1875 C-4.9453125 7.375 -4.9453125 7.375 -4.9375 5.1875 C-4.94007812 4.465625 -4.94265625 3.74375 -4.9453125 3 C-4.69053713 -0.47693449 -3.63356009 0.17869968 0 0 Z M0.1875 5.1875 C0.1875 5.5175 0.1875 5.8475 0.1875 6.1875 C2.1675 6.1875 4.1475 6.1875 6.1875 6.1875 C6.1875 5.8575 6.1875 5.5275 6.1875 5.1875 C4.2075 5.1875 2.2275 5.1875 0.1875 5.1875 Z " fill="#010803" transform="translate(26.8125,79.8125)"/>
<path d="M0 0 C2.86724686 0.57344937 3.8614515 0.8614515 6 3 C6.66 3.33 7.32 3.66 8 4 C7.67 5.32 7.34 6.64 7 8 C4.36 8.33 1.72 8.66 -1 9 C-1 9.66 -1 10.32 -1 11 C0.258125 11.2475 1.51625 11.495 2.8125 11.75 C5.64987006 12.46437331 6.85403908 12.86730825 9.0625 14.875 C10 17 10 17 9.6875 19.25 C9.460625 19.8275 9.23375 20.405 9 21 C7.35 21 5.7 21 4 21 C4 20.01 4 19.02 4 18 C2.72125 17.731875 1.4425 17.46375 0.125 17.1875 C-3.49675855 16.42809901 -3.80051868 16.29922197 -6 13 C-6.4375 10.0625 -6.4375 10.0625 -6 7 C-3.5625 4.8125 -3.5625 4.8125 -1 3 C-0.67 2.01 -0.34 1.02 0 0 Z " fill="#020902" transform="translate(57,8)"/>
<path d="M0 0 C2.94921472 0.09170076 5.87016592 0.23921722 8.8125 0.4375 C10.44395067 0.54130794 12.07545971 0.64420323 13.70703125 0.74609375 C14.79721558 0.81848267 14.79721558 0.81848267 15.90942383 0.89233398 C17.93724564 0.99676811 19.96949076 1 22 1 C21.67 2.65 21.34 4.3 21 6 C14.07 6 7.14 6 0 6 C-0.33 4.35 -0.66 2.7 -1 1 C-0.67 0.67 -0.34 0.34 0 0 Z " fill="#000901" transform="translate(73,84)"/>
<path d="M0 0 C3.42298577 1.14099526 4.14758766 2.00085621 6 5 C6 5.99 6 6.98 6 8 C3.36 8 0.72 8 -2 8 C-2.6875 5.6875 -2.6875 5.6875 -3 3 C-1.5625 1.1875 -1.5625 1.1875 0 0 Z " fill="#010902" transform="translate(30,68)"/>
</svg>
